<?xml version="1.0" encoding="UTF-8"?>
<svg version="1.1" xmlns="http://www.w3.org/2000/svg" width="30" height="32">
<path d="M0 0 C9.9 0 19.8 0 30 0 C30 10.56 30 21.12 30 32 C20.1 32 10.2 32 0 32 C0 21.44 0 10.88 0 0 Z " fill="#DFDFDD" transform="translate(0,0)"/>
<path d="M0 0 C9.9 0 19.8 0 30 0 C30 10.56 30 21.12 30 32 C25.38 32 20.76 32 16 32 C17.65 30.68 19.3 29.36 21 28 C22.12038468 26.84739186 23.20888383 25.66218138 24.25 24.4375 C24.75015625 23.85871094 25.2503125 23.27992187 25.765625 22.68359375 C28.31041552 19.21269275 28.10704908 15.95556439 28.0625 11.8125 C28.05347656 10.72582031 28.04445313 9.63914062 28.03515625 8.51953125 C28.02355469 7.68808594 28.01195313 6.85664062 28 6 C27.40832031 5.87882813 26.81664063 5.75765625 26.20703125 5.6328125 C25.41683594 5.46523437 24.62664063 5.29765625 23.8125 5.125 C22.98363281 4.9496875 22.15476562 4.774375 21.30078125 4.59375 C19 4 19 4 16.5 2.625 C12.79161995 1.69790499 10.47904629 3.32985792 7.18359375 5.0546875 C5 6 5 6 1 6 C0.87497261 16.91444134 0.87497261 16.91444134 6 26 C8.08298477 27.44972553 10.18000201 28.77303033 12.390625 30.01953125 C12.92171875 30.34308594 13.4528125 30.66664062 14 31 C14 31.33 14 31.66 14 32 C9.38 32 4.76 32 0 32 C0 21.44 0 10.88 0 0 Z " fill="#EEEDE9" transform="translate(0,0)"/>
<path d="M0 0 C0.74886475 0.00523682 1.49772949 0.01047363 2.26928711 0.01586914 C3.07817383 0.0190918 3.88706055 0.02231445 4.72045898 0.02563477 C5.5705957 0.03401367 6.42073242 0.04239258 7.29663086 0.05102539 C8.15063477 0.05553711 9.00463867 0.06004883 9.88452148 0.06469727 C12.00108749 0.07652166 14.11761771 0.0944577 16.23413086 0.11352539 C16.23413086 4.07352539 16.23413086 8.03352539 16.23413086 12.11352539 C13.49975586 12.30883789 10.76538086 12.50415039 8.03100586 12.69946289 C5.33779897 13.09817788 3.56449807 13.74859602 1.23413086 15.11352539 C1.23413086 14.12352539 1.23413086 13.13352539 1.23413086 12.11352539 C-0.08586914 12.11352539 -1.40586914 12.11352539 -2.76586914 12.11352539 C-2.79274193 10.30110487 -2.8122063 8.48857306 -2.82836914 6.67602539 C-2.8399707 5.66668945 -2.85157227 4.65735352 -2.86352539 3.61743164 C-2.72928321 0.17546201 -2.72928321 0.17546201 0 0 Z " fill="#34495E" transform="translate(7.765869140625,7.886474609375)"/>
<path d="M0 0 C0.9590625 0.433125 0.9590625 0.433125 1.9375 0.875 C5.29640953 2.10888513 8.60719714 2.83356102 12.109375 3.53515625 C14 4 14 4 15 5 C15.51978779 11.42737598 15.98750823 17.64178581 12 23 C4.4530935 30.6911149 4.4530935 30.6911149 0 31 C-5.52137872 28.50177054 -10.68468845 24.63728029 -13 19 C-13.3093239 14.31295649 -13.23124501 9.68913502 -13 5 C-12.14535156 4.72285156 -11.29070313 4.44570312 -10.41015625 4.16015625 C-9.30542969 3.79792969 -8.20070313 3.43570312 -7.0625 3.0625 C-5.96035156 2.70285156 -4.85820312 2.34320313 -3.72265625 1.97265625 C-1.11876525 1.26143332 -1.11876525 1.26143332 0 0 Z M-11 6 C-11.49269424 15.98291906 -11.49269424 15.98291906 -6.7109375 24.50390625 C-3.984998 27.17882549 -2.31862978 27.98862036 1.5 28.125 C5.88687551 26.71493287 7.77988532 25.29500107 11 22 C12.86890866 18.28106055 13.22465214 15.32306381 13.125 11.1875 C13.10695313 10.21167969 13.08890625 9.23585938 13.0703125 8.23046875 C13.04710938 7.49441406 13.02390625 6.75835937 13 6 C11.04997191 5.49568239 9.09863334 4.99582413 7.140625 4.5234375 C5.45997636 4.11247597 3.78995358 3.65803036 2.125 3.1875 C-2.56908266 2.90585504 -6.60392596 4.46224287 -11 6 Z " fill="#47596C" transform="translate(14,1)"/>
<path d="M0 0 C1.45777376 0.35646293 2.91613356 0.71053572 4.375 1.0625 C5.57125 1.371875 6.7675 1.68125 8 2 C8 5.63 8 9.26 8 13 C7.01 13.495 7.01 13.495 6 14 C5.505 9.05 5.505 9.05 5 4 C-0.94 4 -6.88 4 -13 4 C-13.33 7.63 -13.66 11.26 -14 15 C-16 13 -16 13 -16.1953125 10.3984375 C-16.17210937 9.40070312 -16.14890625 8.40296875 -16.125 7.375 C-16.10695313 6.37210938 -16.08890625 5.36921875 -16.0703125 4.3359375 C-16.04710937 3.56507812 -16.02390625 2.79421875 -16 2 C-5.6875 -1.60733696 -5.6875 -1.60733696 0 0 Z " fill="#EDEBE8" transform="translate(19,5)"/>
<path d="M0 0 C2.64 0 5.28 0 8 0 C8 3.63 8 7.26 8 11 C4.37 11 0.74 11 -3 11 C-2.34 10.67 -1.68 10.34 -1 10 C-0.34444881 7.47266765 -0.34444881 7.47266765 0 5 C0.99 5 1.98 5 3 5 C3 5.66 3 6.32 3 7 C3 6.01 3 5.02 3 4 C2.67 3.01 2.34 2.02 2 1 C1.34 0.67 0.68 0.34 0 0 Z " fill="#213851" transform="translate(16,9)"/>
<path d="M0 0 C0.33 0 0.66 0 1 0 C1.09796875 0.88042969 1.1959375 1.76085938 1.296875 2.66796875 C1.44640625 3.82941406 1.5959375 4.99085937 1.75 6.1875 C1.88921875 7.33605469 2.0284375 8.48460937 2.171875 9.66796875 C3.41899513 14.68586249 5.7569817 17.17132114 10 20 C12.29714187 20.02639829 12.29714187 20.02639829 14.6875 19.625 C15.49574219 19.51414062 16.30398437 19.40328125 17.13671875 19.2890625 C17.75160156 19.19367187 18.36648437 19.09828125 19 19 C18 22 18 22 15.5 23.5625 C10.75609953 24.15548756 8.78715307 22.56388559 5.0625 19.7578125 C2.13104847 17.25941631 0.47357683 15.6169613 -1 12 C-1.01040648 7.94147146 -0.59709259 4.01090458 0 0 Z " fill="#5B6B7A" transform="translate(2,8)"/>
<path d="M0 0 C0 0.99 0 1.98 0 3 C0.66 3.66 1.32 4.32 2 5 C2.66 3.35 3.32 1.7 4 0 C5.32 0.66 6.64 1.32 8 2 C8 2.99 8 3.98 8 5 C7.01 5.66 6.02 6.32 5 7 C5.33 5.68 5.66 4.36 6 3 C5.5875 3.66 5.175 4.32 4.75 5 C4.1725 5.66 3.595 6.32 3 7 C1.68 7 0.36 7 -1 7 C-1.66 5.68 -2.32 4.36 -3 3 C-2.01 2.01 -1.02 1.02 0 0 Z " fill="#A2A9AF" transform="translate(12,11)"/>
<path d="M0 0 C0.639375 0.350625 1.27875 0.70125 1.9375 1.0625 C6.1430267 2.34990613 9.71464763 1.6908847 14 1 C13 4 13 4 10.3125 5.4375 C7 6 7 6 3.6875 4.25 C1 2 1 2 0 0 Z " fill="#516274" transform="translate(7,26)"/>
<path d="M0 0 C1.65 0 3.3 0 5 0 C5 0.99 5 1.98 5 3 C5.66 3.33 6.32 3.66 7 4 C5.68 4.33 4.36 4.66 3 5 C2.01 3.35 1.02 1.7 0 0 Z " fill="#D6D8D7" transform="translate(4,20)"/>
<path d="M0 0 C-0.33 0.66 -0.66 1.32 -1 2 C-3.31 2 -5.62 2 -8 2 C-8 1.34 -8 0.68 -8 0 C-5.13822943 -1.43088528 -3.06624227 -0.59991697 0 0 Z " fill="#EEEDE9" transform="translate(19,5)"/>
</svg>
